HIERARCHY
ROOT Hips
{
	OFFSET -3.958830 18.904000 13.208200
	CHANNELS 6 Xposition Yposition Zposition Zrotation Yrotation Xrotation 
	JOINT LHipJoint
	{
		OFFSET 0.000000 0.000000 0.000000
		CHANNELS 3 Zrotation Yrotation Xrotation
		JOINT LeftUpLeg
		{
			OFFSET 1.800000 -1.400000 0.085000
			CHANNELS 3 Zrotation Yrotation Xrotation
			JOINT LeftLeg
			{
				OFFSET 2.215000 -6.000000 0.000000
				CHANNELS 3 Zrotation Yrotation Xrotation
				JOINT LeftFoot
				{
					OFFSET 2.500000 -6.900000 0.000000
					CHANNELS 3 Zrotation Yrotation Xrotation
					JOINT LeftToeBase
					{
						OFFSET 0.200000 -0.500000 1.950000
						CHANNELS 3 Zrotation Yrotation Xrotation
						End Site
						{
							OFFSET 0.000000 0.000000 0.000000
						}
					}
				}
			}
		}
	}
	JOINT RHipJoint
	{
		OFFSET 0.000000 0.000000 0.000000
		CHANNELS 3 Zrotation Yrotation Xrotation
		JOINT RightUpLeg
		{
			OFFSET -1.800000 -1.400000 0.085000
			CHANNELS 3 Zrotation Yrotation Xrotation
			JOINT RightLeg
			{
				OFFSET -2.215000 -6.000000 0.000000
				CHANNELS 3 Zrotation Yrotation Xrotation
				JOINT RightFoot
				{
					OFFSET -2.500000 -6.900000 0.000000
					CHANNELS 3 Zrotation Yrotation Xrotation
					JOINT RightToeBase
					{
						OFFSET -0.200000 -0.500000 1.950000
						CHANNELS 3 Zrotation Yrotation Xrotation
						End Site
						{
							OFFSET 0.000000 0.000000 0.000000
						}
					}
				}
			}
		}
	}
	JOINT LowerBack
	{
		OFFSET 0.000000 0.000000 0.000000
		CHANNELS 3 Zrotation Yrotation Xrotation
		JOINT Spine
		{
			OFFSET -0.087000 1.940000 -0.288900
			CHANNELS 3 Zrotation Yrotation Xrotation
			JOINT Spine1
			{
				OFFSET 0.000000 1.950000 0.060000
				CHANNELS 3 Zrotation Yrotation Xrotation
				JOINT Neck
				{
					OFFSET 0.000000 0.000000 0.000000
					CHANNELS 3 Zrotation Yrotation Xrotation
					JOINT Neck1
					{
						OFFSET 0.000000 1.600000 0.340000
						CHANNELS 3 Zrotation Yrotation Xrotation
						JOINT Head
						{
							OFFSET 0.000000 1.667000 -0.240000
							CHANNELS 3 Zrotation Yrotation Xrotation
							End Site
							{
								OFFSET 0.000000 0.000000 0.000000
							}
						}
					}
				}
				JOINT LeftShoulder
				{
					OFFSET 0.000000 0.000000 0.000000
					CHANNELS 3 Zrotation Yrotation Xrotation
					JOINT LeftArm
					{
						OFFSET 2.700000 1.550000 -0.730000
						CHANNELS 3 Zrotation Yrotation Xrotation
						JOINT LeftForeArm
						{
							OFFSET 5.450000 0.000000 0.000000
							CHANNELS 3 Zrotation Yrotation Xrotation
							JOINT LeftHand
							{
								OFFSET 3.450000 0.000000 0.000000
								CHANNELS 3 Zrotation Yrotation Xrotation
								JOINT LeftHandIndex1
								{
									OFFSET 0.750000 0.000000 0.000000
									CHANNELS 3 Zrotation Yrotation Xrotation
									End Site
									{
										OFFSET 0.000000 0.000000 0.000000
									}
								}
							}
						}
					}
				}
				JOINT RightShoulder
				{
					OFFSET 0.000000 0.000000 0.000000
					CHANNELS 3 Zrotation Yrotation Xrotation
					JOINT RightArm
					{
						OFFSET -2.700000 1.550000 -0.730000
						CHANNELS 3 Zrotation Yrotation Xrotation
						JOINT RightForeArm
						{
							OFFSET -5.450000 0.000000 0.000000
							CHANNELS 3 Zrotation Yrotation Xrotation
							JOINT RightHand
							{
								OFFSET -3.450000 0.000000 0.000000
								CHANNELS 3 Zrotation Yrotation Xrotation
								JOINT RightHandIndex1
								{
									OFFSET -0.750000 0.000000 0.000000
									CHANNELS 3 Zrotation Yrotation Xrotation
									End Site
									{
										OFFSET 0.000000 0.000000 0.000000
									}
								}
							}
						}
					}
				}
			}
		}
	}
}
MOTION
Frames: 4
Frame Time: 0.016667
-0.078020 16.841440 -20.106020 -1.085418 -9.546114 4.528951 -15.646300 13.829736 2.546904 -1.345918 1.060307 -0.013040 -3.258912 6.202955 15.903392 0.134868 4.840758 3.123729 0.276110 0.201550 -0.025040 18.110698 -8.737551 3.791689 7.469868 7.135216 -35.188709 9.188180 -2.721611 9.520351 0.377948 -1.573350 3.945425 0.234780 0.512790 0.034750 -2.649585 -5.101028 -7.066634 3.549687 -8.198585 4.394055 2.805237 -8.250289 1.215254 -2.629879 -8.111566 -5.559714 -18.204214 15.215306 25.602084 4.939730 7.333940 4.125070 -24.974184 -2.627786 0.345766 -64.927480 -12.431505 4.612854 -11.750342 -6.794121 0.068236 -3.981740 3.278989 -0.091090 0.313260 -0.343320 0.323680 31.239847 5.232939 1.766831 44.397061 2.090330 -6.972309 -0.545149 18.697655 -1.824304 2.394550 -1.588880 -0.166560 0.164400 -0.092420 0.063730 
-0.076470 16.843540 -20.074960 -1.268931 -9.897952 4.401135 -15.640282 13.831998 2.548886 -1.179781 1.055567 0.217875 -3.447503 6.295000 16.013987 0.143110 4.877315 3.105635 0.288530 0.218050 -0.015150 18.116263 -8.731348 3.794616 7.730359 7.109436 -34.791264 9.335504 -2.630077 8.734026 0.371283 -1.536329 3.960720 0.241380 0.497690 0.028290 -2.665845 -5.117667 -7.085062 3.825866 -8.156822 4.540413 3.087660 -8.211308 1.252607 -2.779278 -8.311962 -5.710961 -18.798586 15.316066 25.748342 5.021770 7.278060 3.755800 -24.753381 -2.694802 0.448534 -64.908653 -12.547143 4.597021 -12.723636 -7.604492 0.151791 -3.959680 3.281478 -0.080970 0.299320 -0.331770 0.322500 31.309827 5.446172 1.917577 43.789259 1.965044 -6.915460 -0.719816 18.356974 -1.807528 2.396219 -1.583027 -0.162700 0.169220 -0.097980 0.061070 
-0.075370 16.846990 -20.016450 -1.464102 -10.492535 4.096426 -15.637740 13.838921 2.571165 -0.896956 1.062292 0.718813 -4.042928 6.522851 16.065721 0.165273 4.959998 3.068054 0.309850 0.237220 0.010420 18.117390 -8.721475 3.790161 8.150361 7.043093 -34.182478 9.266318 -2.505200 7.885439 0.355290 -1.478146 3.978089 0.244770 0.464170 0.021090 -2.667704 -5.160588 -7.127697 4.065297 -8.042338 4.796120 3.503459 -8.096093 1.368686 -2.929010 -8.532103 -6.036571 -19.643489 15.481182 26.363809 5.193030 7.265170 3.269760 -24.279653 -2.925831 0.663246 -64.781211 -12.831301 4.623571 -14.257600 -8.894544 0.319179 -3.914158 3.289306 -0.053050 0.268890 -0.305910 0.318480 31.137163 5.843276 2.227889 43.244950 1.729825 -6.868893 -1.197845 17.779441 -1.797673 2.406924 -1.571459 -0.156640 0.168740 -0.110760 0.051650 
-0.078200 16.846840 -19.933520 -1.683477 -11.265485 3.836651 -15.638269 13.836297 2.590293 -0.552503 1.051927 1.308890 -4.725940 6.777922 16.056513 0.187912 5.067669 3.021611 0.328190 0.253730 0.033640 18.120577 -8.711004 3.773147 8.732710 6.982820 -33.388136 9.111103 -2.434174 7.429313 0.339608 -1.454325 3.979397 0.251220 0.437010 0.021840 -2.669361 -5.197175 -7.140643 4.305100 -7.850720 4.866517 4.068504 -7.923925 1.602060 -3.196929 -8.696481 -6.246362 -20.344224 15.618624 26.729044 5.166310 7.338290 2.801550 -23.354748 -2.770211 0.814900 -64.751035 -13.351883 4.861182 -16.640141 -10.608793 0.639191 -3.885944 3.310617 -0.036330 0.249680 -0.286480 0.311500 30.725530 5.868293 2.380822 42.644590 1.602304 -6.678557 -1.556983 16.995587 -1.763378 2.417124 -1.564115 -0.149130 0.164490 -0.117330 0.042280 
